# xmcd CD database file
#
# Track frame offsets:
#	150
#	20520
#	40565
#	60427
#	80800
#	100845
#
# Disc length: 1608 seconds
#
# Revision: 8
# Processed by: cddbd v1.5.2PL0 Copyright (c) Steve Scherf et al.
# Submitted via: CDex 1.70beta2
#
DISCID=3f064606
DTITLE=水樹奈々 - パノラマ-Panorama-
DYEAR=20040407
DGENRE=JPop
TTITLE0=パノラマ-Panorama-
TTITLE1=cherish
TTITLE2=Heartbeat
TTITLE3=パノラマ-Panorama-(off vocal ver.)
TTITLE4=cherish(off vocal ver.)
TTITLE5=Heartbeat(off vocal ver.)
EXTD=YEAR: 20040407
EXTT0=
EXTT1=
EXTT2=
EXTT3=
EXTT4=
EXTT5=
PLAYORDER=
